<svg xmlns="http://www.w3.org/2000/svg" width="559" height="559" viewBox="0 0 559 559" version="1.1"><path d="M 131.702 414.693 C 131.288 415.380, 114.767 454.004, 113.254 457.823 C 112.869 458.795, 113.612 459.061, 116.050 458.823 C 119.093 458.527, 119.586 457.977, 121.936 452.255 L 124.500 446.011 134.240 446.005 L 143.980 446 146.927 452.500 C 149.613 458.422, 150.144 459, 152.906 459 C 155.366 459, 155.812 458.675, 155.275 457.273 C 154.910 456.324, 150.499 446.311, 145.471 435.023 C 138.203 418.706, 135.905 414.437, 134.259 414.193 C 133.120 414.024, 131.970 414.249, 131.702 414.693 M 213.164 435.440 C 208.124 447.231, 204 457.356, 204 457.940 C 204 458.523, 205.271 459, 206.823 459 C 209.347 459, 209.919 458.336, 212.209 452.750 L 214.770 446.500 224.648 446.218 L 234.527 445.935 237.373 452.468 C 239.934 458.348, 240.507 459, 243.109 459 C 244.699 459, 246 458.716, 246 458.369 C 246 458.021, 241.617 447.896, 236.261 435.869 C 228.048 417.426, 226.193 414, 224.425 414 C 222.646 414, 220.939 417.250, 213.164 435.440 M 330.511 415.601 C 328.317 416.404, 324.833 418.710, 322.769 420.725 C 317.688 425.687, 315.641 431.364, 316.191 438.971 C 316.773 447.005, 320.490 452.475, 327.936 456.250 C 334.783 459.723, 345.072 460.058, 351.750 457.027 C 355.399 455.371, 356 454.667, 356 452.049 C 356 450.372, 355.757 449, 355.460 449 C 355.163 449, 353.044 449.957, 350.750 451.127 C 345.523 453.794, 335.915 454.082, 331.369 451.707 C 319.295 445.400, 319.084 428.320, 331 421.783 C 335.304 419.422, 346.696 419.741, 351.750 422.364 L 355 424.051 355 420.678 C 355 417.501, 354.701 417.207, 349.885 415.652 C 343.687 413.650, 335.897 413.630, 330.511 415.601 M 73.431 416.318 C 73.153 417.043, 73.055 426.831, 73.213 438.068 L 73.500 458.500 84 458.469 C 92.015 458.445, 95.265 458.027, 97.733 456.702 C 101.167 454.858, 104 450.472, 104 447 C 104 443.497, 101.151 439.128, 97.733 437.390 C 95.955 436.485, 94.367 435.633, 94.205 435.495 C 94.043 435.357, 95.280 433.873, 96.955 432.199 C 98.916 430.238, 99.999 428.147, 99.996 426.327 C 99.991 422.534, 96.596 417.177, 93.434 415.975 C 89.442 414.457, 74.044 414.721, 73.431 416.318 M 169 437 L 169 459 182 459 L 195 459 195 456 L 195 453 185 453 L 175 453 175 434 L 175 415 172 415 L 169 415 169 437 M 259 437 L 259 459 262 459 L 265 459 265.020 441.750 L 265.039 424.500 268.402 428.500 C 285.336 448.641, 294.747 458.523, 297.275 458.816 L 300 459.133 300 437.066 L 300 415 297.024 415 L 294.048 415 293.774 431.670 L 293.500 448.340 279 431.672 C 266.824 417.674, 264.059 415.003, 261.750 415.002 L 259 415 259 437 M 371 437 L 371 459 384 459 L 397 459 397 456 L 397 453 387 453 L 377 453 377 446 L 377 439 386 439 C 393.333 439, 395 438.722, 395 437.500 C 395 436.675, 395.005 435.663, 395.010 435.250 C 395.016 434.837, 391.079 434.275, 386.260 434 L 377.500 433.500 377.204 426.750 L 376.909 420 386.454 420 C 395.970 420, 396 419.992, 396 417.500 L 396 415 383.500 415 L 371 415 371 437 M 80 427 C 80 434.784, 79.981 434.769, 87.396 433.048 C 91.905 432.002, 92.963 430.726, 92.985 426.307 C 93.004 422.198, 89.970 420, 84.277 420 L 80 420 80 427 M 221.175 431.390 C 219.429 435.550, 218 439.190, 218 439.477 C 218 439.765, 220.955 440, 224.567 440 C 232.091 440, 231.950 440.567, 227.095 429.871 L 224.350 423.826 221.175 431.390 M 130.258 432.500 L 127.127 440 134.147 440 C 138.008 440, 141.017 439.638, 140.833 439.196 C 137.465 431.067, 134.563 425, 134.044 425 C 133.683 425, 131.980 428.375, 130.258 432.500 M 80 446 L 80 453 86.500 453 C 91.667 453, 93.410 452.590, 95 451 C 97.005 448.995, 97.628 444.536, 96.214 442.313 C 94.996 440.397, 90.239 439, 84.935 439 L 80 439 80 446" stroke="none" fill="#1b1918" fill-rule="evenodd"/><path d="M 146 86.970 C 146 87.508, 147.757 91.447, 149.905 95.724 C 154.383 104.640, 158.800 117.258, 159.673 123.632 C 160.002 126.034, 160.569 128, 160.932 128 C 162.356 128, 162.125 161.420, 160.649 169 C 158.535 179.852, 153.546 194.309, 149.017 202.706 L 145.083 210 269.377 210 L 393.672 210 397.813 201.750 C 406.777 183.894, 410.329 168.790, 410.338 148.500 C 410.347 127.763, 406.499 111.335, 397.687 94.500 L 393.500 86.500 269.750 86.246 C 189.611 86.082, 146 86.337, 146 86.970 M 149.512 231.260 C 154.622 240.871, 160.286 257.183, 162.656 269.110 C 164.988 280.850, 165.002 306.595, 162.683 318 C 160.067 330.863, 156.116 342.396, 150.432 353.753 L 145.301 364.007 288.871 363.753 L 432.440 363.500 437.083 354.348 C 441.482 345.678, 447.168 329.646, 448.557 322 C 451.247 307.186, 452.091 297.602, 451.535 288.171 C 450.304 267.273, 445.979 250.714, 437.126 233 L 432.378 223.500 288.754 223.260 L 145.131 223.020 149.512 231.260 M 73.653 414.750 C 73.397 415.163, 75.508 415.371, 78.344 415.214 C 87.539 414.705, 88.658 414.303, 81.309 414.150 C 77.354 414.067, 73.909 414.337, 73.653 414.750 M 168.445 415.282 C 168.175 415.987, 168.087 424.875, 168.251 435.032 L 168.548 453.500 168.774 434.313 L 169 415.127 172.250 414.723 L 175.500 414.320 172.219 414.160 C 170.342 414.069, 168.727 414.549, 168.445 415.282 M 295.250 414.689 C 296.212 414.941, 297.788 414.941, 298.750 414.689 C 299.712 414.438, 298.925 414.232, 297 414.232 C 295.075 414.232, 294.288 414.438, 295.250 414.689 M 377.292 414.742 C 381.027 414.935, 386.877 414.934, 390.292 414.739 C 393.706 414.545, 390.650 414.387, 383.500 414.389 C 376.350 414.390, 373.556 414.550, 377.292 414.742 M 434.200 415.843 C 424.805 420.853, 424.628 431.944, 433.845 437.988 C 442.722 443.810, 444.702 447.150, 441.171 450.345 C 438.716 452.567, 433.799 452.432, 428.778 450.007 C 426.509 448.911, 424.487 448.180, 424.284 448.383 C 424.081 448.586, 423.661 450.315, 423.351 452.225 C 422.813 455.538, 422.978 455.774, 426.914 457.349 C 432.805 459.706, 442.633 459.521, 446.810 456.974 C 450.985 454.429, 453.351 449.038, 452.501 444.006 C 451.842 440.108, 448.526 436.318, 442 432.004 C 436.787 428.557, 435.941 427.224, 437.205 424.449 C 438.652 421.273, 442.696 420.581, 448.431 422.528 C 451.048 423.417, 453.319 423.999, 453.478 423.822 C 453.637 423.645, 454.062 422.118, 454.423 420.429 C 454.990 417.779, 454.722 417.194, 452.465 416.166 C 451.027 415.511, 449.434 415.232, 448.925 415.546 C 448.416 415.861, 448 415.641, 448 415.059 C 448 413.323, 437.844 413.901, 434.200 415.843 M 469.222 415.178 C 468.550 415.850, 468 417.660, 468 419.200 L 468 422 475.019 422 C 481.778 422, 482.020 422.084, 481.545 424.250 C 480.753 427.859, 477 454.973, 477 457.080 C 477 458.689, 477.729 459, 481.500 459 C 483.975 459, 486 458.776, 486 458.503 C 486 458.230, 487.125 450.265, 488.500 440.803 C 489.875 431.341, 491 423.240, 491 422.800 C 491 422.360, 494.402 422, 498.560 422 L 506.121 422 505.810 418.250 L 505.500 414.500 487.972 414.228 C 475.183 414.029, 470.114 414.286, 469.222 415.178" stroke="none" fill="#e11d25" fill-rule="evenodd"/><path d="M -0 279.502 L -0 559.004 279.750 558.752 L 559.500 558.500 559.752 279.250 L 560.004 0 280.002 0 L 0 0 -0 279.502 M 0.493 280 C 0.493 433.725, 0.609 496.612, 0.750 419.750 C 0.891 342.887, 0.891 217.112, 0.750 140.250 C 0.609 63.387, 0.493 126.275, 0.493 280 M 146 86.995 C 146 87.546, 147.583 91.103, 149.517 94.898 C 158.163 111.865, 162 128.345, 162 148.520 C 162 155.837, 161.367 165.126, 160.594 169.162 C 158.558 179.786, 153.546 194.310, 149.017 202.706 L 145.083 210 269.377 210 L 393.672 210 397.813 201.750 C 406.777 183.894, 410.329 168.790, 410.338 148.500 C 410.347 127.763, 406.499 111.335, 397.687 94.500 L 393.500 86.500 269.750 86.246 C 187.524 86.077, 146 86.329, 146 86.995 M 149.505 231.247 C 154.621 240.870, 160.285 257.178, 162.656 269.110 C 164.988 280.850, 165.002 306.595, 162.683 318 C 160.067 330.862, 156.116 342.395, 150.434 353.750 L 145.305 364 288.603 364 L 431.902 364 435.379 357.750 C 443.294 343.519, 449.011 324.567, 451.103 305.618 C 453.812 281.076, 447.640 251.718, 434.890 228.500 L 432.144 223.500 288.630 223.247 L 145.117 222.993 149.505 231.247 M 73.448 415.276 C 73.178 415.978, 73.080 425.990, 73.229 437.526 L 73.500 458.500 82.770 458.788 C 90.267 459.021, 92.895 458.698, 96.507 457.100 C 101.980 454.679, 104.611 450.068, 103.598 444.672 C 102.906 440.980, 98.151 436, 95.320 436 C 94.258 436, 94.771 434.885, 97.007 432.340 C 99.795 429.164, 100.149 428.151, 99.685 424.687 C 98.679 417.187, 92.993 414.072, 80.219 414.024 C 76.030 414.008, 73.774 414.425, 73.448 415.276 M 131.176 415.689 C 130.374 417.203, 114.852 453.672, 113.243 457.823 C 112.866 458.796, 113.626 459.061, 116.109 458.823 C 119.230 458.525, 119.678 458.025, 121.994 452.261 L 124.500 446.022 134.108 446.011 L 143.717 446 146.608 452.473 C 149.301 458.501, 149.723 458.948, 152.750 458.973 C 154.537 458.988, 156 458.863, 156 458.695 C 156 458.528, 151.593 448.515, 146.206 436.445 C 138.234 418.581, 136.015 414.442, 134.274 414.189 C 132.994 414.003, 131.750 414.606, 131.176 415.689 M 168.513 414.979 C 168.180 415.518, 167.982 425.643, 168.072 437.479 L 168.237 459 181.618 459 L 195 459 195 456 L 195 453 185 453 L 175 453 175 433.500 L 175 414 172.059 414 C 170.441 414, 168.846 414.441, 168.513 414.979 M 213.146 435.320 C 208.116 447.046, 204 457.171, 204 457.820 C 204 458.469, 205.282 459, 206.850 459 C 209.408 459, 209.983 458.333, 212.462 452.500 L 215.225 446 224.675 446 L 234.125 446 237.073 452.500 C 239.745 458.394, 240.299 459, 243.010 459 C 244.654 459, 246 458.684, 246 458.298 C 246 457.913, 241.654 447.788, 236.343 435.798 C 227.992 416.947, 226.389 414, 224.490 414 C 222.582 414, 221.089 416.807, 213.146 435.320 M 259 436.500 L 259 459 261.976 459 L 264.953 459 265.226 442.131 L 265.500 425.263 280 442.091 C 292.116 456.153, 294.952 458.927, 297.250 458.960 L 300 459 300 436.500 L 300 414 297.024 414 L 294.047 414 293.774 431.111 L 293.500 448.222 278.595 431.111 C 267.231 418.065, 263.133 414, 261.345 414 L 259 414 259 436.500 M 330.615 415.472 C 328.479 416.234, 324.995 418.552, 322.874 420.623 C 312.424 430.828, 314.013 447.686, 326.185 455.741 C 331.574 459.308, 343.068 460.135, 350.932 457.522 C 355.706 455.937, 356 455.641, 356 452.420 C 356 450.539, 355.832 449, 355.627 449 C 355.422 449, 353.118 449.945, 350.507 451.100 C 344.718 453.661, 335.634 453.896, 331.195 451.601 C 329.495 450.722, 326.850 448.359, 325.318 446.351 C 323.037 443.360, 322.533 441.685, 322.533 437.095 C 322.533 423.354, 335.266 416.309, 349.989 421.904 L 355 423.808 355 420.443 C 355 417.253, 354.729 416.997, 349.818 415.539 C 343.471 413.654, 335.793 413.627, 330.615 415.472 M 371 436.500 L 371 459 384 459 L 397 459 397 456 L 397 453 386.954 453 L 376.909 453 377.204 446.250 L 377.500 439.500 386.750 439.212 C 395.795 438.931, 396 438.871, 396 436.500 C 396 434.129, 395.795 434.069, 386.750 433.788 L 377.500 433.500 377.500 427 L 377.500 420.500 386.750 420.212 L 396 419.925 396 416.962 L 396 414 383.500 414 L 371 414 371 436.500 M 434.200 415.843 C 424.805 420.853, 424.628 431.944, 433.845 437.988 C 442.722 443.810, 444.702 447.150, 441.171 450.345 C 438.716 452.567, 433.799 452.432, 428.778 450.007 C 426.509 448.911, 424.487 448.180, 424.284 448.383 C 424.081 448.586, 423.661 450.315, 423.351 452.225 C 422.813 455.538, 422.978 455.774, 426.914 457.349 C 432.805 459.706, 442.633 459.521, 446.810 456.974 C 450.985 454.429, 453.351 449.038, 452.501 444.006 C 451.842 440.108, 448.526 436.318, 442 432.004 C 436.787 428.557, 435.941 427.224, 437.205 424.449 C 438.652 421.273, 442.696 420.581, 448.431 422.528 C 451.048 423.417, 453.319 423.999, 453.478 423.822 C 453.637 423.645, 454.067 422.096, 454.434 420.379 C 455.062 417.448, 454.855 417.159, 451.031 415.629 C 445.767 413.523, 438.376 413.617, 434.200 415.843 M 469.222 415.178 C 468.550 415.850, 468 417.660, 468 419.200 L 468 422 475.019 422 C 481.778 422, 482.020 422.084, 481.545 424.250 C 480.753 427.859, 477 454.973, 477 457.080 C 477 458.689, 477.729 459, 481.500 459 C 483.975 459, 486 458.776, 486 458.503 C 486 458.230, 487.125 450.265, 488.500 440.803 C 489.875 431.341, 491 423.240, 491 422.800 C 491 422.360, 494.402 422, 498.560 422 L 506.121 422 505.810 418.250 L 505.500 414.500 487.972 414.228 C 475.183 414.029, 470.114 414.286, 469.222 415.178 M 80 426.500 L 80 433 84.845 433 C 90.545 433, 93 430.961, 93 426.228 C 93 422.203, 89.915 420, 84.277 420 L 80 420 80 426.500 M 221.545 430.623 C 220.023 434.405, 218.554 438.063, 218.281 438.750 C 217.915 439.675, 219.523 440, 224.460 440 C 232.109 440, 231.958 440.585, 227.076 429.831 L 224.314 423.746 221.545 430.623 M 130.548 432.056 C 129.025 435.937, 128.002 439.335, 128.274 439.607 C 128.546 439.879, 131.497 439.966, 134.832 439.801 L 140.897 439.500 137.698 432.271 C 135.939 428.295, 134.234 425.032, 133.908 425.021 C 133.582 425.009, 132.070 428.175, 130.548 432.056 M 80 445.884 L 80 453 85.566 453 C 93.643 453, 96.955 450.942, 96.985 445.905 C 97.009 441.723, 93.749 439.642, 86.443 439.177 L 80 438.767 80 445.884" stroke="none" fill="#fbfafa" fill-rule="evenodd"/></svg>